#!OML:ASF X:\für Bonn\!DataBase\2005_08_12_Daniel\c3d\Daniel.ASF
:FULLY-SPECIFIED
:DEGREES
1
root 2.82263 17.665 17.3746 -4.55098 5.92926 -0.240101
lowerback 3.58423 -2.49527 0.7309
upperback 2.09362 -3.30642 -1.35268
thorax 0.0197967 -1.64132 -1.67662
lowerneck -0.161129 1.5885 -0.165584
upperneck 8.4865 2.32946 -2.62525
head 2.75106 1.07367 -0.754814
rclavicle 1.81329e-014 4.37326e-015
rhumerus -42.0283 -11.7333 -85.5976
rradius 18.4372
rwrist 13.5565
rhand -19.0537 13.6677
rfingers 7.12502
rthumb 7.25331 -16.1879
lclavicle 1.81329e-014 4.37326e-015
lhumerus -34.5195 32.796 73.0273
lradius 18.3008
lwrist -38.3008
lhand -9.98475 -6.22385
lfingers 7.12502
lthumb 15.9983 23.1355
rfemur 8.42494 23.0835 22.0486
rtibia 13.6635
rfoot -25.1003 -26.2728
rtoes -10.9791
lfemur 2.23312 -16.4115 -20.6233
ltibia 25.5768
lfoot -23.2351 14.8316
ltoes -11.4822
2
root 2.82261 17.6653 17.3751 -4.54134 5.98148 -0.21591
lowerback 3.56862 -2.49571 0.747079
upperback 2.09517 -3.30664 -1.38148
thorax 0.027496 -1.64113 -1.71588
lowerneck -0.173153 1.58051 -0.184451
upperneck 8.48644 2.31861 -2.61379
head 2.7526 1.06796 -0.748078
rclavicle 1.043e-014 1.39149e-014
rhumerus -42.229 -11.9994 -85.4632
rradius 18.6965
rwrist 13.4833
rhand -19.1011 14.0329
rfingers 7.12502
rthumb 7.20756 -15.8244
lclavicle 1.043e-014 1.39149e-014
lhumerus -34.4682 32.6396 73.0696
lradius 18.3368
lwrist -38.1334
lhand -9.99795 -6.22432
lfingers 7.12502
lthumb 15.9856 23.1361
rfemur 8.41527 23.0001 22.0098
rtibia 13.665
rfoot -25.0548 -26.2744
rtoes -11.0926
lfemur 2.21693 -16.4461 -20.6497
ltibia 25.5767
lfoot -23.2229 14.8204
ltoes -11.4861
3
root 2.82214 17.6655 17.3753 -4.53931 6.0573 -0.215401
lowerback 3.56185 -2.51282 0.759028
upperback 2.1072 -3.329 -1.37979
thorax 0.0422596 -1.65206 -1.72064
lowerneck -0.209825 1.58616 -0.263096
upperneck 8.47245 2.32566 -2.57608
head 2.75289 1.07006 -0.722004
rclavicle 1.81391e-014 -2.06736e-014
rhumerus -42.386 -12.1132 -85.4096
rradius 18.9657
rwrist 13.1224
rhand -19.1942 14.3915
rfingers 7.12502
rthumb 7.11767 -15.4688
lclavicle 1.81391e-014 -2.06736e-014
lhumerus -34.4438 32.6567 73.0747
lradius 18.3651
lwrist -38.1276
lhand -10.0157 -6.18284
lfingers 7.12502
lthumb 15.9685 23.179
rfemur 8.42296 22.9296 22.0041
rtibia 13.6602
rfoot -25.0652 -26.2761
rtoes -11.0899
lfemur 2.18545 -16.3755 -20.6115
ltibia 25.5817
lfoot -23.186 14.6814
ltoes -11.5101
4
root 2.82098 17.6649 17.376 -4.54922 6.11144 -0.204228
lowerback 3.57766 -2.50637 0.78048
upperback 2.1091 -3.31978 -1.39951
thorax 0.0333612 -1.64723 -1.75243
lowerneck -0.214635 1.56911 -0.322253
upperneck 8.45438 2.30051 -2.52761
head 2.74561 1.05739 -0.696846
rclavicle 2.60843e-014 -1.39149e-014
rhumerus -42.6076 -12.2831 -85.3446
rradius 19.3094
rwrist 12.6776
rhand -19.1969 14.7147
rfingers 7.12502
rthumb 7.11511 -15.1457
lclavicle 2.60843e-014 -1.39149e-014
lhumerus -34.4358 32.6953 73.0275
lradius 18.3803
lwrist -38.1943
lhand -10.0124 -6.06962
lfingers 7.12502
lthumb 15.9717 23.2919
rfemur 8.44034 22.8483 21.9897
rtibia 13.6573
rfoot -25.0417 -26.2664
rtoes -11.1418
lfemur 2.18931 -16.4038 -20.6237
ltibia 25.5823
lfoot -23.1759 14.659
ltoes -11.5151
5
root 2.82039 17.6644 17.3768 -4.54743 6.19363 -0.203517
lowerback 3.57108 -2.51755 0.803452
upperback 2.12284 -3.33393 -1.41162
thorax 0.0486164 -1.65389 -1.77782
lowerneck -0.239256 1.55535 -0.352938
upperneck 8.41639 2.28275 -2.53314
head 2.73675 1.04771 -0.693612
rclavicle -3.8558e-014 -1.31198e-014
rhumerus -42.8203 -12.426 -85.317
rradius 19.7437
rwrist 11.9921
rhand -19.1846 14.9646
rfingers 7.12502
rthumb 7.12698 -14.8954
lclavicle -3.8558e-014 -1.31198e-014
lhumerus -34.3799 32.5869 73.0776
lradius 18.4271
lwrist -38.0889
lhand -10.0179 -6.07121
lfingers 7.12502
lthumb 15.9664 23.2907
rfemur 8.46554 22.8098 21.9965
rtibia 13.6423
rfoot -25.0784 -26.2971
rtoes -11.1166
lfemur 2.16 -16.373 -20.5976
ltibia 25.5914
lfoot -23.1476 14.5523
ltoes -11.5337
6
root 2.81933 17.6644 17.3775 -4.55743 6.2559 -0.20463
lowerback 3.57613 -2.52195 0.811999
upperback 2.13855 -3.33938 -1.40961
thorax 0.061355 -1.65638 -1.78053
lowerneck -0.28656 1.54542 -0.404097
upperneck 8.41157 2.2725 -2.54672
head 2.7432 1.04037 -0.689134
rclavicle -1.66109e-014 2.06736e-014
rhumerus -43.0341 -12.5658 -85.3071
rradius 20.2184
rwrist 11.0843
rhand -19.1487 15.1309
rfingers 7.12502
rthumb 7.16165 -14.7279
lclavicle -1.66109e-014 2.06736e-014
lhumerus -34.3228 32.4669 73.1626
lradius 18.4902
lwrist -37.9807
lhand -10.015 -5.99135
lfingers 7.12502
lthumb 15.9692 23.3704
rfemur 8.48622 22.7057 21.9919
rtibia 13.6303
rfoot -25.0447 -26.2776
rtoes -11.1717
lfemur 2.15105 -16.3404 -20.5748
ltibia 25.5961
lfoot -23.1252 14.4618
ltoes -11.5497
7
root 2.81887 17.6645 17.3781 -4.54767 6.35554 -0.191788
lowerback 3.57645 -2.54374 0.827921
upperback 2.13973 -3.36801 -1.43342
thorax 0.0590138 -1.67047 -1.81271
lowerneck -0.325428 1.54425 -0.415535
upperneck 8.40134 2.27131 -2.54315
head 2.74666 1.03937 -0.685799
rclavicle -9.70318e-015 9.14409e-015
rhumerus -43.2883 -12.7546 -85.3139
rradius 20.78
rwrist 10.0905
rhand -19.0915 15.3173
rfingers 7.12502
rthumb 7.21682 -14.5397
lclavicle -9.70318e-015 9.14409e-015
lhumerus -34.3163 32.4417 73.1151
lradius 18.5199
lwrist -37.9402
lhand -10.0014 -5.96505
lfingers 7.12502
lthumb 15.9823 23.3956
rfemur 8.50876 22.6227 21.9724
rtibia 13.6031
rfoot -25.0609 -26.2869
rtoes -11.161
lfemur 2.10914 -16.312 -20.5578
ltibia 25.6095
lfoot -23.094 14.3424
ltoes -11.5706
8
root 2.81787 17.6645 17.3793 -4.54776 6.41488 -0.191771
lowerback 3.55501 -2.54062 0.855336
upperback 2.16392 -3.36298 -1.4552
thorax 0.0931397 -1.66725 -1.85224
lowerneck -0.369705 1.53416 -0.436438
upperneck 8.37342 2.25803 -2.5386
head 2.74486 1.03229 -0.680784
rclavicle 2.53078e-014 -1.98785e-015
rhumerus -43.5452 -12.8613 -85.415
rradius 21.4598
rwrist 8.71508
rhand -19.0851 15.4107
rfingers 7.12502
rthumb 7.22297 -14.446
lclavicle 2.53078e-014 -1.98785e-015
lhumerus -34.2379 32.1548 73.2482
lradius 18.6466
lwrist -37.6388
lhand -9.91857 -5.94334
lfingers 7.12502
lthumb 16.0621 23.4109
rfemur 8.52011 22.5386 21.9638
rtibia 13.5933
rfoot -25.0552 -26.2633
rtoes -11.1633
lfemur 2.1027 -16.34 -20.5527
ltibia 25.6139
lfoot -23.0898 14.311
ltoes -11.572
